<?xml version="1.0" standalone="no"?>
<!DOCTYPE svg PUBLIC "-//W3C//DTD SVG 20010904//EN"
 "http://www.w3.org/TR/2001/REC-SVG-20010904/DTD/svg10.dtd">
<svg version="1.0" xmlns="http://www.w3.org/2000/svg"
 width="758.000000pt" height="724.000000pt" viewBox="0 0 758.000000 724.000000"
 preserveAspectRatio="xMidYMid meet">
<metadata>
Created by potrace 1.16, written by Peter Selinger 2001-2019
</metadata>
<g transform="translate(0.000000,724.000000) scale(0.100000,-0.100000)"
fill="#000000" stroke="none">
<path d="M3652 6749 c-360 -26 -692 -139 -1012 -347 -314 -203 -604 -539 -748
-866 -65 -149 -98 -243 -133 -379 -155 -614 -1 -1267 419 -1767 239 -285 570
-516 909 -634 89 -30 243 -69 250 -63 1 1 2 34 1 72 0 39 -2 297 -3 575 -2
278 -3 511 -4 518 -1 7 -70 81 -154 165 -169 168 -214 235 -269 391 -84 246
-69 515 42 736 16 31 59 96 97 145 115 149 219 233 369 299 134 58 192 70 354
70 276 0 440 -59 648 -233 222 -185 358 -546 312 -827 -38 -236 -117 -384
-327 -607 -52 -56 -106 -121 -119 -143 l-25 -42 3 -553 3 -554 40 3 c72 6 257
75 420 157 317 161 584 388 782 665 320 449 433 1023 313 1595 -95 457 -398
927 -782 1211 -280 208 -571 331 -918 388 -170 29 -311 36 -468 25z m358 -173
c284 -39 514 -116 748 -254 479 -280 813 -772 916 -1352 65 -364 7 -725 -181
-1130 -118 -253 -402 -562 -653 -710 -29 -17 -67 -41 -84 -54 -80 -59 -339
-176 -355 -161 -3 4 -7 204 -9 446 -2 372 -1 439 11 439 8 0 26 9 40 20 16 13
28 17 32 10 11 -18 29 -217 30 -320 0 -52 -4 -168 -8 -257 -10 -185 -12 -181
69 -144 l41 19 7 99 c4 54 11 105 15 112 7 11 17 10 57 -1 48 -13 49 -14 52
-58 4 -63 14 -68 62 -35 73 50 127 148 131 238 2 23 7 50 13 60 13 20 44 23
52 4 3 -8 19 -24 35 -36 l31 -23 29 28 c35 34 36 40 4 96 -31 55 -25 63 60 72
34 4 67 14 78 24 56 50 75 160 37 217 -11 17 -20 35 -20 42 0 7 24 20 54 28
74 22 103 47 137 119 35 75 36 79 3 101 -14 9 -32 32 -40 50 -7 19 -21 38 -30
43 -11 6 9 9 61 10 42 1 80 4 85 7 5 3 12 30 15 59 11 87 28 84 -337 78 l-318
-5 0 31 c0 17 5 34 11 38 6 4 154 8 328 9 174 1 324 5 334 9 24 11 25 111 1
120 -9 3 -155 6 -325 6 l-309 0 0 40 0 40 313 0 c171 0 318 4 325 9 8 5 12 25
10 59 -3 47 -6 53 -33 62 -20 7 -130 8 -331 4 l-302 -7 -11 38 c-6 22 -9 40
-8 42 2 1 153 3 336 3 l333 2 -7 21 c-3 12 -9 40 -12 62 l-5 41 -60 11 c-33 6
-62 14 -65 17 -3 3 1 23 8 43 11 29 21 39 41 41 25 3 26 5 16 39 -5 20 -16 47
-24 59 -18 27 -113 70 -175 78 -42 6 -50 4 -90 -27 -73 -55 -95 -126 -64 -200
8 -20 15 -38 15 -40 0 -4 -281 1 -285 5 -1 2 -12 28 -23 59 l-21 57 62 55 c34
30 65 58 68 61 3 3 31 1 63 -5 63 -13 108 -5 183 34 39 20 50 33 69 82 11 29
13 166 3 159 -5 -3 -9 -1 -9 4 0 15 -33 48 -70 71 -27 16 -51 21 -107 21 -70
0 -74 -1 -125 -43 -52 -42 -53 -45 -67 -120 -12 -69 -18 -82 -60 -127 -25 -27
-52 -57 -60 -66 -14 -16 -17 -14 -43 17 -36 42 -35 62 1 88 16 12 47 45 67 74
21 28 41 54 44 57 5 5 73 103 95 138 6 9 15 22 22 29 7 8 20 26 29 42 34 57
73 59 133 4 13 -13 31 -23 39 -23 9 0 24 -7 34 -17 10 -9 18 -11 18 -5 0 13
-169 212 -180 212 -4 0 -33 23 -64 50 -82 72 -109 83 -175 77 -83 -7 -135 -32
-168 -79 -24 -36 -28 -50 -27 -113 l0 -71 -29 4 c-16 3 -31 11 -34 18 -10 26
-22 3 -28 -54 -3 -31 -10 -81 -16 -109 l-10 -53 -30 15 c-28 15 -29 17 -29 94
0 43 3 106 6 140 7 60 7 61 38 61 18 0 37 -5 44 -12 9 -9 12 -9 12 0 0 6 14
19 30 27 49 25 90 90 90 142 0 78 -19 131 -59 164 -31 25 -42 29 -73 24 -21
-4 -52 -4 -69 0 -29 7 -30 9 -25 40 7 35 0 40 -85 59 l-26 6 -16 -113 c-20
-130 -21 -198 -6 -247 12 -38 18 -290 7 -290 -4 0 -23 9 -42 21 l-36 21 0 218
c0 185 2 221 16 234 13 14 13 16 1 16 -20 0 -37 52 -37 115 0 46 -3 53 -22 59
-51 13 -75 7 -83 -21 -4 -16 -9 -153 -12 -306 l-5 -278 -26 3 -27 3 -3 238
c-2 221 -1 237 15 238 12 1 9 3 -7 8 -23 6 -25 13 -30 71 l-5 65 -36 9 c-66
16 -69 11 -69 -126 -1 -109 -5 -316 -9 -450 l-1 -48 -40 0 -40 0 0 279 c0 153
-3 293 -6 310 -6 29 -9 31 -49 31 l-42 0 -8 -129 c-3 -71 -6 -200 -5 -287 3
-219 6 -200 -38 -211 l-39 -10 -6 309 c-3 171 -8 312 -11 315 -3 3 -30 2 -61
-2 l-55 -6 0 -325 0 -325 -47 -21 c-27 -12 -51 -24 -55 -26 -11 -5 -9 250 2
313 5 30 4 70 -2 100 -6 28 -11 94 -12 147 -2 54 -5 101 -9 104 -3 4 -30 -2
-59 -13 -52 -18 -53 -20 -51 -56 2 -36 1 -37 -32 -37 -18 0 -46 5 -60 10 -21
8 -36 6 -70 -9 -23 -10 -46 -24 -50 -31 -5 -7 -10 -55 -12 -105 -5 -99 -1
-113 48 -176 35 -44 36 -68 7 -125 -23 -46 -74 -102 -84 -91 -3 3 10 20 29 36
34 31 67 86 67 113 0 27 -82 138 -118 160 -33 20 -106 38 -157 39 -10 0 -37
-13 -60 -29 -45 -32 -46 -36 -19 -160 10 -46 25 -83 41 -102 14 -17 23 -33 21
-36 -3 -2 -46 38 -96 91 -84 89 -92 95 -116 85 -26 -9 -66 -63 -66 -88 0 -14
82 -97 151 -153 45 -37 72 -87 59 -109 -6 -9 -11 -7 -19 9 -7 11 -18 21 -25
21 -8 0 -33 9 -57 20 -63 28 -155 27 -200 -3 -46 -30 -69 -80 -69 -147 0 -128
119 -208 255 -170 24 7 52 21 61 31 23 26 36 24 32 -4 -2 -16 10 -38 36 -68
56 -65 69 -94 61 -141 -13 -73 -25 -78 -190 -78 -164 0 -158 -4 -128 79 31 87
-2 158 -86 186 -41 13 -57 14 -97 4 -60 -15 -94 -31 -117 -57 -22 -24 -39 -90
-26 -98 5 -3 21 -25 35 -50 33 -57 25 -65 -61 -62 -55 2 -60 0 -66 -23 -4 -13
-7 -40 -8 -60 -1 -35 1 -37 37 -44 20 -4 171 -6 334 -5 240 1 297 -1 294 -12
-3 -7 -7 -24 -10 -38 l-5 -25 -308 -1 c-169 0 -322 -4 -339 -8 -29 -7 -32 -12
-37 -59 -5 -35 -3 -54 6 -59 6 -4 162 -8 345 -8 l332 0 0 -40 0 -40 -307 0
c-170 0 -324 -3 -343 -6 l-35 -6 3 -58 4 -58 86 -6 c48 -3 92 -6 97 -6 6 -1
121 2 256 6 l247 7 7 -24 c19 -66 41 -60 -219 -57 -130 2 -237 -1 -239 -5 -1
-5 -51 -11 -110 -14 l-107 -6 0 -60 0 -60 104 6 c58 4 107 3 110 -2 3 -4 -4
-17 -15 -27 -104 -93 -106 -225 -5 -273 25 -13 66 -23 91 -23 53 -1 60 -14 34
-64 -24 -48 -25 -127 -1 -174 21 -43 89 -80 147 -80 30 0 50 8 78 31 35 29 67
33 67 10 0 -5 -11 -22 -24 -38 -27 -32 -76 -120 -76 -136 0 -6 8 -3 18 5 9 8
37 26 62 40 25 15 122 105 217 200 l172 175 28 -29 c15 -15 22 -28 15 -28 -6
0 -25 -29 -43 -65 -36 -74 -36 -123 1 -195 11 -21 20 -42 20 -45 0 -3 -21 10
-47 29 -65 46 -123 61 -181 46 -62 -15 -101 -45 -123 -94 -36 -78 -20 -157 45
-230 22 -24 46 -63 55 -87 12 -31 29 -52 61 -73 28 -19 45 -26 48 -18 2 7 12
12 23 12 21 0 25 10 10 25 -6 6 -13 29 -17 51 -6 41 -6 42 38 68 25 14 48 26
53 26 8 0 1 -99 -12 -170 -5 -32 -4 -34 11 -21 14 12 16 9 16 -27 0 -31 5 -45
22 -56 27 -19 78 -21 78 -3 -2 267 17 747 30 760 3 3 21 -9 40 -27 l35 -32 3
-442 3 -443 -28 7 c-120 28 -362 151 -515 261 -168 121 -397 363 -497 526
-170 278 -248 500 -286 817 -35 281 -4 510 110 826 100 274 230 480 429 677
198 197 423 345 680 448 107 43 338 103 451 118 110 14 340 12 455 -3z m-784
-412 c50 -31 32 -106 -30 -129 -55 -19 -120 46 -101 102 18 50 76 62 131 27z
m1269 1 c34 -33 32 -70 -5 -107 -27 -26 -35 -29 -68 -23 -20 3 -43 14 -49 23
-18 22 -16 83 3 110 22 32 86 31 119 -3z m-1586 -161 c22 -18 31 -35 31 -55 0
-37 -40 -79 -74 -79 -53 0 -88 99 -49 142 23 25 56 23 92 -8z m1899 -26 c19
-19 14 -70 -10 -95 -21 -22 -62 -30 -84 -15 -33 22 -39 76 -12 110 13 15 90
16 106 0z m-1638 -48 c12 -7 16 -36 18 -129 4 -115 3 -120 -19 -131 -19 -11
-25 -10 -36 6 -7 10 -13 29 -13 43 0 14 -7 62 -15 106 -21 115 -21 115 18 115
17 0 39 -5 47 -10z m-219 -180 c72 -127 90 -165 87 -187 -5 -41 -20 -36 -63
19 -45 57 -69 84 -129 146 l-41 43 69 -3 c48 -2 71 -7 77 -18z m1798 -6 c14
-12 -150 -204 -173 -204 -7 0 -23 11 -36 25 l-24 25 38 32 c40 33 86 98 86
122 0 12 10 14 53 9 28 -3 54 -7 56 -9z m-1919 -211 c40 -43 80 -89 88 -102
15 -22 14 -25 -17 -53 l-33 -29 -46 43 c-26 24 -61 52 -78 62 -24 14 -33 28
-37 55 -3 20 -9 46 -13 59 -5 16 -2 22 10 22 9 0 16 5 16 10 0 30 46 2 110
-67z m-261 23 c28 -29 22 -77 -12 -101 -68 -48 -149 34 -101 103 22 32 83 30
113 -2z m2591 -1262 c-22 -20 -40 -43 -40 -50 0 -11 -30 -14 -160 -14 -88 0
-160 3 -160 6 0 5 26 56 38 74 2 3 76 7 165 11 89 3 170 6 180 7 11 1 3 -10
-23 -34z m-2400 11 c0 -9 7 -29 15 -45 l16 -30 -156 0 c-95 0 -155 4 -155 10
0 5 -15 25 -34 45 l-34 35 174 0 c150 0 174 -2 174 -15z m-53 -212 c123 -4
173 -10 177 -19 5 -13 -66 -115 -109 -154 -15 -14 -50 -53 -77 -88 -53 -66
-69 -76 -43 -26 20 39 19 66 -6 124 -30 70 -77 100 -158 100 l-62 0 33 41 c24
30 37 39 53 35 11 -4 97 -9 192 -13z m2420 -33 c11 -29 10 -30 -19 -30 -45 0
-96 -28 -124 -69 -30 -44 -34 -142 -7 -181 9 -14 -1 -7 -23 15 -22 22 -93 89
-158 149 l-118 109 23 18 c21 16 46 19 219 19 l196 0 11 -30z m-486 -172 c5
-10 15 -18 21 -18 14 0 288 -276 288 -290 0 -21 -21 -20 -29 2 -13 33 -70 84
-115 102 -51 21 -95 20 -151 -4 l-47 -20 7 49 c8 61 -10 153 -34 175 -11 10
-17 25 -14 36 5 19 6 19 35 2 16 -9 34 -25 39 -34z"/>
<path d="M6267 5675 c-33 -31 -35 -72 -7 -103 12 -12 25 -22 30 -22 17 0 62
20 76 34 22 22 17 70 -9 94 -30 29 -56 28 -90 -3z"/>
<path d="M1224 5657 c-22 -19 -26 -29 -20 -51 3 -14 16 -36 27 -47 26 -26 73
-20 108 15 22 23 23 27 11 56 -22 52 -81 65 -126 27z"/>
<path d="M620 5369 c-87 -52 -121 -123 -105 -222 13 -81 79 -152 150 -163 45
-6 93 -2 127 11 11 5 18 0 24 -17 4 -12 49 -65 100 -116 52 -52 94 -98 94
-103 0 -5 4 -8 10 -7 5 2 20 -10 33 -25 l23 -29 168 1 c93 0 171 3 174 6 3 3
-71 5 -164 5 l-169 0 -82 87 -82 88 2 56 c2 66 5 66 83 -8 95 -90 102 -95 109
-84 3 7 2 10 -4 9 -6 -2 -37 25 -69 60 -32 34 -74 74 -93 88 l-34 25 112 -3
c62 -2 109 0 105 3 -4 4 -51 9 -104 11 -54 2 -102 8 -108 14 -12 12 27 68 48
70 6 1 119 2 249 3 130 0 234 3 232 5 -3 3 -115 8 -249 12 -138 3 -250 11
-257 16 -7 6 -13 25 -13 44 0 70 -35 119 -112 159 -62 33 -147 34 -198 4z
m158 -139 c29 -28 28 -71 -2 -100 -33 -30 -71 -29 -107 6 -34 33 -36 52 -8 88
26 33 84 36 117 6z"/>
<path d="M3680 5383 c-147 -24 -317 -131 -416 -258 -56 -72 -75 -110 -106
-201 -33 -100 -33 -296 0 -404 46 -145 117 -255 215 -330 28 -22 62 -49 73
-58 l21 -18 -4 -721 -5 -722 33 -5 c19 -3 58 -8 87 -11 l52 -6 0 133 c1 73 3
412 6 753 5 583 4 622 -13 655 -10 19 -57 67 -104 107 -98 82 -150 153 -184
252 -49 138 -40 262 26 399 76 157 252 272 414 272 63 0 174 -28 240 -61 152
-75 265 -266 265 -449 0 -157 -53 -264 -196 -398 -56 -52 -108 -107 -116 -121
-10 -21 -14 -172 -16 -775 -2 -412 1 -753 5 -757 8 -8 153 8 163 18 3 2 6 280
6 616 1 337 2 660 3 718 l1 105 66 53 c153 123 252 319 261 521 6 127 -9 196
-70 320 -53 110 -184 245 -293 303 -122 64 -286 92 -414 70z"/>
<path d="M6782 5357 c-67 -42 -102 -92 -102 -146 l0 -41 -97 -2 c-122 -2 -144
-4 -163 -11 -8 -4 -31 -8 -50 -10 -19 -2 30 -3 110 -3 l145 1 1 -46 c1 -28 -3
-46 -10 -47 -6 0 -55 -4 -109 -8 -54 -4 -100 -10 -102 -14 -2 -3 40 -4 95 -2
115 4 133 -7 80 -47 -19 -14 -60 -53 -92 -87 l-58 -61 -72 -7 c-83 -8 -116
-26 -50 -27 23 0 60 -1 83 -1 24 -1 45 5 51 13 8 11 9 10 4 -5 -5 -14 -2 -17
9 -12 9 3 13 2 10 -4 -6 -10 34 -31 46 -24 4 2 12 -3 19 -10 18 -22 -15 -34
-95 -35 -90 0 -194 -11 -200 -21 -3 -4 14 -6 38 -4 23 2 85 6 137 8 52 3 102
7 111 9 21 4 272 242 280 265 3 9 14 9 44 1 48 -14 131 2 169 32 65 51 91 130
73 220 -8 39 -20 61 -54 95 -52 53 -77 64 -146 64 -41 0 -63 -7 -105 -33z
m131 -118 c56 -25 60 -97 7 -124 -33 -17 -56 -11 -87 22 -33 35 -30 69 10 93
37 23 39 23 70 9z"/>
<path d="M3608 4909 c-38 -21 -71 -98 -76 -173 -5 -93 20 -165 81 -224 52 -51
143 -87 196 -77 193 35 307 235 226 395 -14 28 -27 50 -28 50 -2 0 -3 -10 -3
-22 1 -17 -4 -22 -19 -20 -55 8 -105 8 -105 1 0 -5 4 -9 9 -9 5 0 14 -14 21
-30 11 -26 10 -38 -5 -77 -10 -26 -29 -57 -41 -70 -62 -62 -204 16 -204 112 0
14 -9 33 -20 42 -11 10 -20 23 -20 31 0 7 -4 11 -9 8 -18 -12 -18 20 1 47 21
30 21 31 -4 16z"/>
<path d="M334 4761 c-57 -26 -82 -49 -105 -98 -24 -54 -24 -119 1 -174 66
-147 244 -173 355 -54 l40 43 200 -9 c206 -9 694 -13 702 -5 2 2 -112 7 -254
10 -142 4 -310 11 -373 17 -63 6 -136 11 -162 11 -26 1 -45 5 -42 10 3 4 10 6
15 3 5 -4 9 5 9 19 0 14 -6 27 -12 28 -34 4 175 16 312 18 200 4 123 14 -178
25 -182 7 -215 11 -219 24 -39 125 -171 186 -289 132z m149 -143 c52 -69 -52
-159 -113 -98 -28 28 -27 83 2 110 32 29 85 24 111 -12z"/>
<path d="M7082 4763 c-38 -19 -100 -86 -114 -124 -9 -25 -13 -26 -106 -32
-106 -7 -414 -18 -724 -26 -32 0 -58 -5 -58 -9 0 -4 108 -6 240 -4 179 3 240
1 240 -8 0 -6 8 -10 18 -9 9 2 27 -1 40 -5 20 -7 20 -9 7 -23 -32 -31 -117
-43 -360 -50 -140 -4 -226 -10 -206 -14 19 -4 80 -6 135 -4 56 2 248 6 428 10
l326 7 37 -40 c93 -103 240 -110 331 -16 19 18 38 52 44 76 6 24 13 48 15 54
6 21 -18 109 -38 139 -59 85 -172 119 -255 78z m113 -129 c8 -4 23 -20 31 -36
14 -27 14 -32 -3 -60 -25 -43 -46 -54 -79 -43 -36 13 -68 57 -60 82 16 50 64
74 111 57z"/>
<path d="M1260 4330 c-85 -4 -164 -10 -175 -15 -11 -5 -36 -23 -55 -41 -19
-18 -52 -48 -72 -67 -21 -19 -38 -37 -38 -40 0 -3 -11 -17 -24 -32 -21 -22
-25 -23 -36 -10 -7 8 -38 22 -68 31 -96 28 -187 -4 -249 -89 -19 -26 -23 -44
-23 -108 0 -74 13 -129 32 -129 4 0 8 -6 8 -12 0 -18 58 -62 99 -76 73 -26
142 -7 209 57 44 42 50 53 56 101 l7 55 366 -3 c201 -2 369 0 374 5 14 15 -15
116 -37 124 -19 8 -391 3 -516 -7 -38 -3 -68 -1 -68 3 0 5 26 36 58 71 l58 62
186 0 c102 0 200 3 217 6 30 6 31 9 31 55 l0 49 -35 0 c-19 0 -35 5 -35 10 0
11 -15 11 -270 0z m-487 -328 c35 -37 34 -64 -4 -96 -46 -39 -66 -35 -107 18
-28 37 -28 39 9 75 38 38 67 39 102 3z"/>
<path d="M6027 4323 c-40 -4 -42 -6 -52 -65 -5 -30 -3 -38 10 -38 8 0 15 -4
15 -9 0 -4 93 -6 208 -3 l207 4 53 -57 c28 -32 52 -62 52 -67 0 -5 -114 -8
-286 -7 -232 1 -288 -1 -299 -12 -8 -8 -17 -37 -21 -65 l-6 -51 273 -6 c151
-4 325 -4 387 0 106 6 112 5 112 -13 0 -102 105 -204 210 -204 87 0 169 67
196 159 13 47 14 64 4 113 -11 49 -20 65 -60 102 -55 51 -92 62 -182 52 -44
-4 -68 -13 -91 -32 l-31 -26 -21 24 c-11 13 -31 38 -45 54 -14 16 -58 58 -98
92 l-73 62 -212 -2 c-117 -1 -229 -3 -250 -5z m906 -321 c35 -36 34 -57 -2
-93 -38 -37 -63 -37 -95 2 -30 35 -28 59 7 97 28 30 58 28 90 -6z"/>
<path d="M1256 3208 c-24 -33 -20 -86 7 -109 29 -24 48 -24 81 2 32 25 34 66
5 103 -26 33 -71 35 -93 4z"/>
<path d="M6268 3199 c-23 -40 -23 -64 3 -100 26 -37 45 -37 92 4 44 38 46 55
11 96 -36 43 -82 43 -106 0z"/>
<path d="M6533 2755 c-38 -16 -50 -36 -58 -101 -11 -79 7 -129 59 -159 65 -38
143 -29 89 10 -16 12 -16 16 -1 61 12 36 16 42 17 24 1 -31 27 -70 46 -70 13
0 30 59 39 135 1 17 4 1 4 -35 2 -81 -5 -107 -29 -113 -10 -3 -19 -12 -19 -21
0 -26 46 -19 82 13 30 26 33 35 36 100 4 65 2 75 -23 110 -27 41 -49 51 -100
50 -17 -1 -22 -3 -12 -6 23 -6 22 -36 -3 -58 -19 -18 -20 -17 -20 3 0 11 -5
24 -10 27 -8 5 -8 11 0 20 22 26 -44 33 -97 10z"/>
<path d="M1415 2271 c-192 -27 -370 -185 -426 -378 -34 -120 -17 -289 41 -403
29 -57 105 -157 130 -170 10 -5 24 -16 32 -23 22 -22 110 -64 180 -87 54 -17
88 -21 170 -19 l103 2 67 -69 c36 -38 76 -81 88 -96 32 -41 81 -50 230 -42
124 7 130 8 130 29 0 27 -26 60 -133 167 -47 49 -89 99 -93 113 -3 14 -12 25
-20 25 -18 0 -29 47 -15 64 7 8 24 19 39 25 32 14 56 49 94 141 15 36 27 57
27 48 1 -10 6 -18 11 -18 6 0 10 48 10 125 0 146 -20 223 -84 320 -46 71 -72
97 -147 153 -92 67 -158 90 -279 95 -58 3 -127 2 -155 -2z m233 -259 c33 -16
52 -31 52 -43 0 -10 8 -20 18 -23 24 -8 74 -82 89 -131 24 -75 12 -186 -24
-242 l-16 -24 -26 24 c-68 63 -105 71 -171 37 -22 -11 -46 -20 -55 -20 -21 0
-55 -36 -55 -58 0 -10 14 -34 31 -53 25 -28 27 -35 14 -37 -22 -5 -131 36
-146 54 -6 8 -16 14 -21 14 -13 0 -42 35 -75 88 -21 36 -26 56 -26 114 0 46
-3 65 -9 56 -20 -27 3 75 26 121 24 46 83 108 126 131 66 35 186 32 268 -8z"/>
<path d="M2340 2260 c-13 -8 -15 -56 -12 -347 3 -361 6 -390 58 -498 26 -54
103 -145 122 -145 7 0 12 -4 12 -9 0 -15 112 -63 170 -71 130 -19 170 -21 170
-6 0 8 16 15 41 19 54 7 153 56 207 102 52 46 92 102 125 180 24 56 28 58 39
17 2 -8 3 158 3 368 0 326 -2 382 -15 390 -23 15 -225 13 -238 -2 -6 -8 -11
-139 -14 -348 l-3 -336 -35 -48 c-84 -116 -265 -113 -346 6 l-29 43 -5 333
c-5 316 -6 334 -24 348 -23 16 -201 20 -226 4z"/>
<path d="M5594 2257 c-6 -16 7 -48 41 -102 26 -43 50 -82 91 -155 15 -25 37
-61 49 -80 13 -19 29 -47 36 -62 7 -16 16 -28 21 -28 4 0 8 -4 8 -9 0 -12 88
-169 112 -200 16 -21 18 -45 18 -208 0 -108 4 -192 10 -204 10 -17 22 -19 123
-19 62 0 117 4 124 8 13 9 24 352 11 352 -21 0 -3 49 40 113 64 94 186 286
201 315 7 13 15 21 18 18 3 -3 0 -12 -7 -20 -6 -9 -10 -21 -7 -28 3 -7 15 7
27 32 12 25 31 61 43 81 64 107 87 155 87 181 l0 28 -133 0 c-153 0 -147 3
-208 -103 -19 -32 -44 -74 -56 -95 -21 -35 -40 -68 -96 -170 -13 -24 -28 -44
-33 -44 -8 -1 -50 60 -74 107 -5 11 -21 38 -34 60 -14 22 -41 68 -60 102 -19
34 -46 80 -61 102 l-25 41 -130 0 c-99 0 -132 -3 -136 -13z"/>
<path d="M3552 2248 c-7 -9 -11 -186 -14 -519 -2 -418 -1 -509 11 -522 12 -15
52 -17 397 -17 245 0 385 4 389 10 3 6 7 58 7 116 1 82 -1 108 -13 115 -9 6
-111 8 -276 3 l-263 -6 0 86 0 86 238 2 237 3 0 96 c0 67 -4 101 -14 112 -12
15 -41 17 -237 17 l-224 0 0 97 0 96 108 -9 c128 -10 413 -6 426 7 5 4 10 59
10 121 l1 113 -386 3 c-301 2 -389 -1 -397 -10z"/>
<path d="M4605 2248 c-3 -7 -4 -247 -3 -533 l3 -520 115 0 115 0 11 155 c6 85
12 156 13 158 0 1 31 2 69 2 56 0 69 -3 77 -19 12 -22 87 -134 95 -141 3 -3
21 -30 40 -60 19 -30 40 -61 47 -68 7 -7 13 -18 13 -23 0 -5 64 -9 150 -9 124
0 152 3 156 15 6 16 -80 145 -97 145 -5 0 -9 6 -9 13 0 7 -9 20 -20 30 -28 23
-95 118 -95 134 0 7 30 44 66 82 37 38 78 93 93 123 21 43 24 47 20 21 -4 -19
-2 -33 3 -33 14 0 25 153 17 225 -7 61 -40 144 -71 180 -43 49 -114 96 -173
115 -57 18 -90 20 -347 20 -218 0 -285 -3 -288 -12z m475 -254 c57 -4 91 -12
103 -22 26 -23 48 -81 41 -106 -15 -54 -29 -77 -59 -96 -29 -18 -50 -20 -180
-20 l-147 0 6 31 c3 17 6 74 6 125 0 76 3 92 14 88 8 -3 17 0 21 6 5 8 25 10
59 6 28 -3 89 -8 136 -12z"/>
<path d="M2540 880 l-175 -5 0 -85 0 -85 93 3 c50 2 93 2 94 0 1 -2 5 -113 8
-248 l5 -245 65 -3 c35 -2 75 0 89 3 l24 6 -6 239 -6 238 22 6 c12 3 56 6 98
6 l77 0 4 78 c3 42 0 83 -5 90 -10 13 -43 13 -387 2z"/>
<path d="M3102 873 c-4 -10 -7 -108 -7 -218 0 -165 3 -208 18 -248 9 -26 21
-53 27 -60 91 -116 139 -142 264 -142 76 1 99 5 140 25 64 31 119 88 151 155
24 53 25 59 25 280 l0 226 -82 -3 -83 -3 -6 -195 c-4 -135 -11 -205 -20 -227
-22 -48 -62 -75 -113 -75 -54 0 -75 11 -109 56 -26 34 -27 35 -29 238 l-3 203
-83 3 c-71 2 -83 0 -90 -15z"/>
<path d="M3972 882 c-18 -6 -17 -668 1 -675 22 -8 371 4 414 15 30 7 53 23 85
60 47 53 60 97 51 163 -7 43 -49 105 -72 105 -11 0 -9 6 5 23 40 44 54 77 54
122 0 88 -64 162 -155 180 -41 8 -363 14 -383 7z"/>
<path d="M4803 883 l-83 -4 0 -309 c0 -176 4 -320 10 -334 l10 -26 250 0 250
0 5 23 c3 12 5 52 3 87 l-3 65 -150 2 c-192 4 -197 5 -193 46 l3 32 145 5 145
5 0 75 0 75 -147 3 -148 3 0 39 0 40 175 0 175 0 0 74 c0 41 -3 81 -6 90 -5
14 -30 16 -183 14 -97 -1 -213 -4 -258 -5z"/>
<path d="M1017 678 c-25 -25 -28 -34 -23 -66 8 -40 44 -77 83 -85 13 -2 233 1
490 7 l466 12 23 28 c17 18 24 40 24 66 0 73 17 71 -541 69 l-493 -2 -29 -29z"/>
<path d="M5562 687 c-12 -13 -22 -33 -22 -46 0 -29 26 -78 48 -90 21 -11 920
-18 944 -7 10 4 27 23 38 41 23 37 17 68 -20 105 -20 20 -30 20 -493 20 l-474
0 -21 -23z"/>
</g>
</svg>
